<svg width="132" height="115" viewBox="0 0 132 115" fill="none" xmlns="http://www.w3.org/2000/svg">
<rect x="17" y="28" width="98" height="60" rx="2" fill="white"/>
<rect opacity="0.15" x="25" y="36" width="82" height="44" rx="1" fill="#BC1948"/>
<path d="M69.75 54.125C69.75 52.3991 68.3509 51 66.625 51H59.125C57.3991 51 56 52.3991 56 54.125V62.875C56 64.6009 57.3991 66 59.125 66H66.625C68.3509 66 69.75 64.6009 69.75 62.875V54.125ZM71 55.9135V61.1019L74.4552 64.0399C75.0641 64.5576 76 64.1249 76 63.3257V53.7414C76 52.9461 75.0719 52.512 74.4615 53.0219L71 55.9135Z" fill="white"/>
</svg>
