<svg width="132" height="117" viewBox="0 0 132 117" fill="none" xmlns="http://www.w3.org/2000/svg">
<rect x="17" y="28.5" width="98" height="60" rx="2" fill="#292929"/>
<g opacity="0.4">
<rect x="25.25" y="36.5" width="82" height="44" rx="1" fill="#E8467C"/>
<path d="M69.75 54.625C69.75 52.8991 68.3509 51.5 66.625 51.5H59.125C57.3991 51.5 56 52.8991 56 54.625V63.375C56 65.1009 57.3991 66.5 59.125 66.5H66.625C68.3509 66.5 69.75 65.1009 69.75 63.375V54.625ZM71 56.4135V61.6019L74.4552 64.5399C75.0641 65.0576 76 64.6249 76 63.8257V54.2414C76 53.4461 75.0719 53.012 74.4615 53.5219L71 56.4135Z" fill="#292929" stroke="#292929" stroke-linecap="round"/>
</g>
</svg>
